<?xml version="1.0" encoding="utf-8"?>
<!-- Generator: Adobe Illustrator 25.3.1, SVG Export Plug-In . SVG Version: 6.00 Build 0)  -->
<svg version="1.1" id="Layer_1" xmlns="http://www.w3.org/2000/svg" xmlns:xlink="http://www.w3.org/1999/xlink" x="0px" y="0px"
	 viewBox="0 0 512 512" style="enable-background:new 0 0 512 512;" xml:space="preserve">
<style type="text/css">
	.st0{fill:#3EB246;}
	.st1{fill:#97FA97;}
</style>
<g>
	<path class="st0" d="M326.2,397.9c-8.6,0.1-15-2.3-21.3-4.9c-0.9-0.4-1.9-0.7-2.8-1.1c-9.9-3.8-9.9-3.8-16.7,4.2
		c-3.4,4.1-6.8,8.2-10.5,12c-12.1,12.5-25.7,12.5-37.9,0.2c-4.9-5-9.5-10.3-13.5-16c-2.2-3.1-4.5-3.4-7.7-2.2
		c-6.9,2.5-13.7,5.1-20.7,7.1c-14.6,4.3-25-1.3-30.3-15.6c-2.7-7.3-3.5-14.9-4.6-22.4c-0.6-4.5-2.9-6.7-7.3-7.4
		c-6.9-1.1-13.8-1.9-20.6-3.9c-16-4.7-22.3-15.7-17.8-31.7c1.9-6.9,4.5-13.6,7-20.3c1.2-3.1,0.7-5.2-1.9-7.3
		c-5-3.9-9.7-8.1-14.5-12.3c-13.3-11.8-13.8-27-1.4-39.7c4.4-4.5,9.5-8.4,14.5-12.3c3.8-3,4.4-6.1,2.8-10.4
		c-2.6-7-5.9-13.7-7.1-21.2c-2.6-15.2,4.3-26.1,19.4-29.8c6-1.4,12.1-2.4,18.2-3.1c5.2-0.6,8-2.9,8.6-8.3c0.7-6.1,1.9-12.2,3.4-18.1
		c4.1-16.9,16-23.8,32.7-18.7c6.3,1.9,12.6,4.3,18.7,6.7c3,1.2,5.4,1,7.6-1.5c4.4-5.2,8.9-10.4,13.5-15.4
		c13-14.1,29.8-13.5,42.1,1.3c3.4,4.1,7.1,7.9,10.4,12.1c2.2,2.8,4.3,3.4,7.7,2c6.3-2.5,12.8-4.6,19.3-6.7
		c15.9-5.1,27.2,0.8,32.2,16.6c2.3,7.2,3.3,14.6,4.2,22c0.5,4.1,2.4,6.2,6.6,6.7c6.1,0.9,12.1,2.1,18.2,3.1
		c16.6,2.6,25.1,15.5,20.6,31.6c-1.9,6.7-4.2,13.3-6.7,19.8c-1.6,4.2-1,7.2,2.7,10c5.2,3.9,10.3,7.9,15,12.4
		c12.1,11.7,12.2,25.8,0.1,37.7c-5.2,5.1-10.8,9.9-16.5,14.5c-2.3,1.9-2.8,4-1.8,6.5c2,5.1,4,10.2,6.1,15.3
		c7.5,17.7,0.2,32.9-18.4,37.8c-6.4,1.7-13,2.9-19.5,4c-3.4,0.6-4.8,2.2-5.3,5.5c-1.2,8.6-2.7,17.1-5.9,25.2
		C342.5,393.2,335.7,397.9,326.2,397.9z M187.6,125.6c-6.8-0.1-10,1.9-11.8,8.4c-1.7,6.1-2.9,12.3-3.9,18.5
		c-2.1,13.1-6.2,17.2-19.4,19.5c-6.2,1.1-12.5,1.7-18.5,3.9c-7.5,2.7-9.9,7.4-8.3,15.2c1.5,7,4.6,13.5,6.9,20.3
		c2.9,8.4,1.7,15.7-5.3,21.6c-4.9,4.2-10.1,8.2-14.7,12.7c-7.7,7.5-7.6,14.5,0.4,21.9c4.9,4.5,9.9,8.9,15.1,13.1
		c6.3,5.1,8.3,11.3,5.4,19c-2.5,6.7-4.9,13.4-6.9,20.3c-2.7,9.1,0.1,14,9.1,16.7c5.6,1.7,11.4,2.4,17.1,3.3
		c12.6,1.9,17,5.9,19.5,18.3c1.2,5.8,2,11.8,3.5,17.5c2.7,10.5,7.9,13.3,18.1,10c6.9-2.3,13.8-4.7,20.8-7c7.3-2.4,13-0.2,17.5,5.9
		c4.2,5.6,8.8,10.8,13.8,15.8c7.4,7.3,13,7.4,20.3-0.3c4-4.2,7.7-8.7,11.4-13.2c7.8-9.5,13.1-11.2,24.9-7.4c6,2,11.9,4.3,18,6
		c8.7,2.4,13-0.1,16.1-8.5c2.2-6,3.4-12.2,4.4-18.4c1.9-12.8,5.5-16.5,18.1-18.9c6.2-1.2,12.5-1.8,18.5-3.9c8.6-3,12-8.8,9.3-17.4
		c-1.8-5.9-4.7-11.4-6.8-17.1c-3.9-10.3-2.8-14.9,5.2-22.2c4.7-4.3,9.8-8.1,14.3-12.4c7.9-7.5,8-14.2,0.1-21.7
		c-4.9-4.7-10.4-8.8-15.5-13.4c-5.9-5.3-7.7-11.8-4.9-19.4c2.5-7,5.3-14,6.9-21.3c1.9-8.5-2-14.5-10.4-15.9c-6.4-1-12.8-2-19.2-3.2
		c-10-1.8-13.7-5.7-16-15.8c-1.6-7.3-2.1-14.8-4.7-21.9c-2.9-7.9-6.8-10.1-14.9-8.2c-7.5,1.7-14.6,4.5-21.8,7.2
		c-7.3,2.7-13.2,1.5-18.3-4.5c-4.9-5.8-9.9-11.7-15.2-17.2c-6.4-6.5-13.3-6.4-19.7,0.1c-3.7,3.8-7,8.1-10.5,12
		c-3.6,3.9-6.9,8.1-12.1,10.2c-5.9,2.4-11-0.6-16.3-2.3C200.7,129.1,194.6,125.9,187.6,125.6z"/>
	<path class="st1" d="M187.6,125.6c7,0.3,13.1,3.5,19.5,5.6c5.3,1.8,10.4,4.7,16.3,2.3c5.2-2.1,8.5-6.3,12.1-10.2
		c3.6-3.9,6.8-8.2,10.5-12c6.4-6.5,13.2-6.6,19.7-0.1c5.4,5.4,10.3,11.3,15.2,17.2c5.1,6,11.1,7.2,18.3,4.5
		c7.2-2.6,14.3-5.5,21.8-7.2c8.1-1.8,12,0.3,14.9,8.2c2.6,7.1,3.1,14.6,4.7,21.9c2.2,10,6,14,16,15.8c6.4,1.1,12.8,2.1,19.2,3.2
		c8.5,1.4,12.4,7.4,10.4,15.9c-1.7,7.3-4.4,14.3-6.9,21.3c-2.7,7.6-1,14.1,4.9,19.4c5.1,4.6,10.6,8.7,15.5,13.4
		c7.8,7.5,7.8,14.2-0.1,21.7c-4.6,4.3-9.7,8.1-14.3,12.4c-8,7.3-9.1,11.9-5.2,22.2c2.2,5.7,5.1,11.3,6.8,17.1
		c2.6,8.6-0.8,14.4-9.3,17.4c-6,2.1-12.3,2.7-18.5,3.9c-12.6,2.4-16.1,6-18.1,18.9c-0.9,6.2-2.2,12.4-4.4,18.4
		c-3.1,8.5-7.3,11-16.1,8.5c-6.1-1.7-12-4-18-6c-11.8-3.8-17.1-2.1-24.9,7.4c-3.7,4.5-7.4,9-11.4,13.2c-7.3,7.7-12.9,7.6-20.3,0.3
		c-5-4.9-9.6-10.2-13.8-15.8c-4.5-6.1-10.2-8.3-17.5-5.9c-6.9,2.3-13.8,4.7-20.8,7c-10.2,3.3-15.4,0.5-18.1-10
		c-1.5-5.8-2.3-11.7-3.5-17.5c-2.6-12.4-6.9-16.4-19.5-18.3c-5.7-0.9-11.5-1.5-17.1-3.3c-9-2.8-11.7-7.6-9.1-16.7
		c2-6.9,4.4-13.6,6.9-20.3c2.9-7.8,0.9-13.9-5.4-19c-5.2-4.2-10.2-8.5-15.1-13.1c-7.9-7.4-8.1-14.4-0.4-21.9
		c4.6-4.5,9.8-8.5,14.7-12.7c7-5.9,8.2-13.2,5.3-21.6c-2.3-6.7-5.4-13.2-6.9-20.3c-1.7-7.8,0.8-12.5,8.3-15.2
		c6-2.2,12.3-2.8,18.5-3.9c13.1-2.3,17.2-6.5,19.4-19.5c1-6.2,2.2-12.4,3.9-18.5C177.6,127.5,180.8,125.5,187.6,125.6z M343,214.8
		c0-14.1-9.9-26.5-23.7-29.3c-11.4-2.3-20.6,2.4-28.3,10.2c-19,19-37.7,38.1-56.4,57.3c-2.6,2.7-4.4,3.4-7.1,0.2
		c-2.2-2.7-4.8-5-7.4-7.5c-6.7-6.4-14.6-10.1-23.9-9.5c-12.4,0.8-21.3,7.3-26,18.8c-4.7,11.6-1.8,22.1,6.5,30.8
		c10.6,11.2,21.6,22.2,32.7,33c12.4,12,29.8,11.9,42.1-0.3c27.4-27.2,54.7-54.6,82-81.9C339.4,230.6,343.5,223.7,343,214.8z"/>
	<path class="st0" d="M343,214.8c0.5,8.8-3.6,15.8-9.5,21.7c-27.3,27.4-54.5,54.7-82,81.9c-12.3,12.2-29.6,12.3-42.1,0.3
		c-11.1-10.8-22.1-21.7-32.7-33c-8.3-8.8-11.2-19.3-6.5-30.8c4.7-11.5,13.6-18,26-18.8c9.2-0.6,17.2,3.1,23.9,9.5
		c2.5,2.4,5.2,4.8,7.4,7.5c2.6,3.2,4.4,2.5,7.1-0.2c18.7-19.2,37.5-38.3,56.4-57.3c7.7-7.7,16.9-12.5,28.3-10.2
		C333.1,188.3,343,200.8,343,214.8z M231.7,315c5.2,0.3,9.6-2.9,13.6-6.9c18.3-18.4,36.8-36.7,55-55.2c9-9.1,18.5-17.7,26.8-27.6
		c5.7-6.8,6-14.6,0.9-21.4c-5.2-6.9-13.2-8.7-21.4-5.1c-5.2,2.3-8.7,6.6-12.6,10.5c-19.4,19.7-38.8,39.3-58.2,59
		c-4.3,4.3-5.5,4.2-9.8-0.1c-4.7-4.7-9.3-9.5-14.2-14.1c-5.1-4.8-11-7.7-18.2-5.7c-13.4,3.6-17.2,18.7-7.4,29.3
		c10.5,11.4,21.5,22.2,32.8,32.8C222.4,313.7,226.4,315,231.7,315z"/>
	<path class="st1" d="M231.7,315c-5.3,0-9.3-1.3-12.6-4.4c-11.3-10.6-22.3-21.4-32.8-32.8c-9.8-10.6-6-25.7,7.4-29.3
		c7.2-2,13.1,0.9,18.2,5.7c4.9,4.6,9.5,9.4,14.2,14.1c4.3,4.3,5.5,4.4,9.8,0.1c19.4-19.6,38.8-39.3,58.2-59
		c3.8-3.9,7.4-8.1,12.6-10.5c8.2-3.7,16.1-1.9,21.4,5.1c5.1,6.8,4.8,14.6-0.9,21.4c-8.3,9.8-17.8,18.4-26.8,27.6
		c-18.2,18.5-36.7,36.8-55,55.2C241.3,312.1,236.9,315.3,231.7,315z"/>
</g>
</svg>
